<?xml version="1.0" encoding="utf-8"?>
<!-- Generator: Adobe Illustrator 24.0.1, SVG Export Plug-In . SVG Version: 6.00 Build 0)  -->
<svg version="1.1" id="Capa_1" xmlns="http://www.w3.org/2000/svg" xmlns:xlink="http://www.w3.org/1999/xlink" x="0px" y="0px"
	 viewBox="0 0 1000 600" style="enable-background:new 0 0 1000 600;" xml:space="preserve">
<g>
	<path d="M538.6,520.5c6.4-0.6,21.1-44.6,24.6-53.1c-11.9-15.2-21.4-36.6-28.8-53.1c-3.2-7.3-6.1-13.6-8.5-18l-0.2-0.3
		c-4-6.5-6.1-12.8-6.7-18.4c-0.6-6.4,0.8-12.3,3.4-16.9c1.1-1.9,2.3-3.5,3.7-5c1.4-1.5,3.1-2.8,4.8-3.9s3.6-1.9,5.6-2.5s4-0.9,6.1-1
		c4.9-0.1,10.1,1.2,14.9,4.5c4.3,2.9,8.3,7.2,11.6,13.3l2.6,4.8c1.1,2,2.4,4.3,3.8,6.5l1.5-5.2c0.3-1,0.6-1.9,0.9-2.8
		s0.8-1.9,1.2-2.8l31.5-109c0.9-3.2,2.4-6,4.4-8.4c2-2.5,4.5-4.6,7.3-6.1c2.8-1.6,5.9-2.5,9.1-2.9c3.1-0.4,6.3-0.1,9.5,0.8
		c2.4,0.7,4.6,1.7,6.6,3c1.8,1.2,3.3,2.5,4.8,4l1.2-4.1c0.9-3.2,2.4-6,4.4-8.4c2-2.5,4.5-4.6,7.3-6.2c2.8-1.6,5.9-2.5,9.1-2.9
		c3.1-0.4,6.3-0.1,9.5,0.8c3.2,0.9,6,2.4,8.4,4.4c2.5,2,4.6,4.5,6.2,7.3c1.6,2.8,2.5,5.9,2.9,9.1c0.4,3.1,0.1,6.3-0.8,9.5l-1.2,4
		c2-0.6,4.2-0.9,6.3-1c2.4,0,4.9,0.3,7.3,0.9l0,0c3.2,0.9,6,2.4,8.4,4.4c2.5,2,4.6,4.5,6.1,7.3c1.6,2.8,2.5,5.9,2.9,9.1
		c0.4,3.1,0.1,6.3-0.8,9.5l-1.5,5.2c2-0.5,4-0.8,6-0.8c2.3,0,4.6,0.3,6.9,0.9c3.2,0.9,6,2.4,8.4,4.4c1,0.8,1.9,1.6,2.7,2.5
		c0.1-1,0.1-2,0.2-3c0.4-5.2,0.5-10.6,0.5-16.3c0-65.4-26.5-124.7-69.4-167.6S581.1,47.6,515.7,47.6S391,74.1,348.1,117
		s-69.4,101.9-69.4,167.4s26.5,124.7,69.4,167.6s102.2,69.4,167.6,69.4c4.2,0,8-0.1,11.5-0.2C531.1,521.2,534.9,520.9,538.6,520.5
		L538.6,520.5z M533.4,540.9c-1.7,0.1-3.5,0.2-5.2,0.3c-4.5,0.2-8.6,0.3-12.4,0.3c-71,0-135.2-28.7-181.7-75.3
		c-46.6-46.5-75.4-110.7-75.4-181.7s28.7-135.2,75.3-181.7s92.8-75.3,163.7-75.3s153.2,28.7,199.7,75.3
		c46.5,46.5,75.3,110.8,75.3,181.7c0,56.1-10.1,80.8-39.9,127.8c-0.3,1.5-0.6,3-1,4.5l-12.4,43.1c-3.6,12.6-12.6,21.9-21.6,31.3
		c-3.2,3.3-6.3,6.6-9.3,10c-16.9,97.9-161.2,78.1-157.8,46.3L533.4,540.9L533.4,540.9z M723.3,402.9c3.3-3.2,24.6-69.3,22.8-79.1
		c0.4-1.6,0.6-3.2,0.4-4.8l0,0c-0.2-1.6-0.7-3.2-1.5-4.7c-0.8-1.4-1.9-2.7-3.2-3.7c-1.2-1-2.7-1.8-4.3-2.2c-1.6-0.4-3.2-0.6-4.8-0.4
		s-3.2,0.7-4.7,1.5c-1.4,0.8-2.7,1.9-3.7,3.2c-1,1.2-1.8,2.7-2.2,4.3l-14.3,49.6c-0.1,0.3-0.4,0.4-0.7,0.4l-10.4-3
		c-0.3-0.1-0.4-0.4-0.4-0.7l21.6-75c0.4-1.6,0.6-3.2,0.4-4.8c-0.2-1.6-0.7-3.2-1.5-4.6l0,0c-0.8-1.4-1.9-2.7-3.2-3.7
		c-1.2-1-2.7-1.8-4.3-2.2c-1.6-0.4-3.2-0.6-4.8-0.4s-3.2,0.7-4.7,1.5c-1.4,0.8-2.7,1.9-3.7,3.2c-1,1.2-1.8,2.7-2.2,4.3l-21.6,74.9
		c-0.1,0.3-0.4,0.4-0.7,0.4l-11-3.2c-0.3-0.1-0.4-0.4-0.4-0.7l28.5-98.9c0.4-1.6,0.6-3.2,0.4-4.8c-0.2-1.6-0.7-3.2-1.5-4.7
		c-0.8-1.4-1.9-2.7-3.2-3.7c-1.2-1-2.7-1.8-4.3-2.2s-3.2-0.6-4.8-0.4c-1.6,0.2-3.2,0.7-4.7,1.5c-1.4,0.8-2.7,1.9-3.7,3.2
		c-1,1.2-1.8,2.7-2.2,4.3l-28.5,98.9c-0.1,0.3-0.4,0.4-0.7,0.4l-10.8-3.1c-0.3-0.1-0.4-0.4-0.4-0.7l21.6-74.8
		c0.4-1.6,0.6-3.2,0.4-4.8c-0.2-1.6-0.7-3.2-1.5-4.6l0,0c-0.8-1.4-1.9-2.7-3.2-3.7c-1.2-1-2.7-1.8-4.3-2.2s-3.2-0.6-4.8-0.4
		c-1.6,0.2-3.2,0.7-4.7,1.5c-1.4,0.8-2.7,1.9-3.7,3.2c-1,1.2-1.8,2.7-2.2,4.3c-5.6,19.5-11.2,38.6-16.8,57.7
		c-5.6,19-11.1,38-16.6,57l-7.2,20.2c0,0.2-0.2,0.4-0.4,0.4l-4.7,0.8h-0.3c-0.5-0.2-1.1-0.4-1.6-0.7l0,0c-0.5-0.3-0.9-0.7-1.3-1.2
		c-1.1-1.1-2.3-2.7-3.6-4.7l0,0c-1.3-2-2.7-4.2-4.1-6.5c-2.8-4.8-5.7-10-6.8-12v-0.1c-2.2-4-4.7-6.8-7.2-8.7c-2.8-2.1-5.8-3-8.5-2.9
		c-1,0-2,0.2-2.9,0.5c-1,0.3-1.9,0.7-2.8,1.2c-0.9,0.5-1.7,1.2-2.4,2c-0.7,0.8-1.4,1.6-1.9,2.6c-1.6,2.8-2.4,6.5-1.8,10.8
		c0.5,3.8,2,8,4.8,12.5c0.2,0.3,0.3,0.5,0.5,0.8c1.6,2.8,4.1,8.2,7.4,15.1c8.5,17.9,21.8,45.8,33,62.1c0.1,0.1,0.1,0.4,0,0.5
		l-35.4,83.8c39.5,14.3,112.4,20.8,135.8-54.2c0.1-0.5,0.2-1,0.4-1.5s0.5-1,0.9-1.4c1.9-2.2,4.1-4.7,6.7-7.4
		c8.8-9.7,20.2-22.1,22.7-31L723.3,402.9L723.3,402.9z M400.6,256.8c-1.8,5.2-7.4,8-12.6,6.1c-5.2-1.8-8-7.4-6.1-12.6
		c7.2-20.9,18.8-39.8,33.4-55.6c14.8-15.9,32.7-28.7,53-37.5c5-2.2,10.9,0.1,13.1,5.2c2.2,5-0.1,10.9-5.2,13.1
		c-17.6,7.6-33.4,18.9-46.3,32.8C417,222.1,406.9,238.6,400.6,256.8L400.6,256.8z M346.1,246.5c-1.3,5.3-6.8,8.6-12.1,7.2
		c-5.3-1.3-8.6-6.8-7.2-12.1c8.3-32.3,24.3-61.5,46.2-85.4c21.9-24.1,49.6-42.8,80.9-54c5.2-1.9,10.9,0.8,12.8,6s-0.8,10.9-6,12.8
		c-28.2,10.1-53.1,26.9-72.9,48.6C368,191.1,353.5,217.4,346.1,246.5L346.1,246.5z M515.7,229.4c15.2,0,29,6.2,39,16.1
		c10,10,16.1,23.8,16.1,39s-6.2,29-16.1,38.9l0,0c-10,10-23.7,16.1-38.9,16.1c-15.2,0-29-6.2-38.9-16.1l0,0
		c-10-10-16.1-23.7-16.1-38.9c0-15.2,6.2-29,16.1-39C486.7,235.6,500.5,229.4,515.7,229.4L515.7,229.4z M540.6,259.6
		c-6.4-6.4-15.2-10.3-24.9-10.3c-9.7,0-18.5,4-24.9,10.3c-6.4,6.4-10.3,15.2-10.3,24.9s4,18.5,10.3,24.9
		c6.4,6.4,15.2,10.3,24.9,10.3c9.8,0,18.5-3.9,24.9-10.3c6.4-6.4,10.3-15.2,10.3-24.9C550.9,274.8,547,266,540.6,259.6L540.6,259.6z
		"/>
</g>
</svg>
