<?xml version="1.0" encoding="utf-8"?>
<!-- Generator: Adobe Illustrator 24.0.1, SVG Export Plug-In . SVG Version: 6.00 Build 0)  -->
<svg version="1.1" id="Capa_1" xmlns="http://www.w3.org/2000/svg" xmlns:xlink="http://www.w3.org/1999/xlink" x="0px" y="0px"
	 viewBox="0 0 1000 600" style="enable-background:new 0 0 1000 600;" xml:space="preserve">
<g>
	<path d="M528,73c-137,0-248,97.2-248,217v168.8c0,26.5,24.8,48.2,55.1,48.2h110.2V314.1H335.1V290c0-93.3,86.2-168.8,192.9-168.8
		S720.9,196.7,720.9,290v24.1H610.7V507h110.2c30.3,0,55.1-21.7,55.1-48.2V290C776,170.2,665,73,528,73z M390.2,362.3v96.4h-55.1
		v-96.4H390.2z M720.9,458.8h-55.1v-96.4h55.1V458.8z"/>
</g>
</svg>
